<svg width="17" height="17" viewBox="0 0 17 17" fill="none" xmlns="http://www.w3.org/2000/svg">
<path d="M2.14869 8.91791L13.7086 8.91791L10.2293 12.3972C10.1665 12.4578 10.1165 12.5304 10.082 12.6106C10.0476 12.6908 10.0294 12.777 10.0287 12.8643C10.0279 12.9516 10.0445 13.0381 10.0776 13.1189C10.1106 13.1997 10.1595 13.2731 10.2212 13.3348C10.2829 13.3965 10.3563 13.4453 10.4371 13.4784C10.5179 13.5114 10.6044 13.5281 10.6917 13.5273C10.779 13.5266 10.8652 13.5084 10.9454 13.474C11.0256 13.4395 11.0982 13.3894 11.1588 13.3267L15.7601 8.72532C15.8834 8.60205 15.9526 8.43488 15.9526 8.26058C15.9526 8.08628 15.8834 7.91911 15.7601 7.79584L11.1588 3.19449C11.0348 3.07475 10.8688 3.00849 10.6964 3.00999C10.5241 3.01149 10.3592 3.08062 10.2373 3.2025C10.1155 3.32437 10.0463 3.48924 10.0448 3.66159C10.0433 3.83394 10.1096 3.99999 10.2293 4.12396L13.7086 7.60324L2.14869 7.60324C1.97436 7.60324 1.80716 7.6725 1.68389 7.79577C1.56061 7.91905 1.49136 8.08624 1.49136 8.26058C1.49136 8.43491 1.56061 8.60211 1.68389 8.72538C1.80716 8.84866 1.97436 8.91791 2.14869 8.91791Z" fill="white"/>
</svg>
